<svg width="35" height="35" viewBox="0 0 35 35" fill="none" xmlns="http://www.w3.org/2000/svg">
<path d="M16.0417 8.75009C16.0417 8.54738 16.0417 8.4453 16.0533 8.36071C16.0907 8.09389 16.2139 7.8465 16.4044 7.65598C16.5949 7.46547 16.8423 7.34222 17.1092 7.30488C17.1952 7.29321 17.2958 7.29321 17.4985 7.29321C17.7012 7.29321 17.8048 7.29321 17.8879 7.30488C18.1547 7.34222 18.4021 7.46547 18.5926 7.65598C18.7832 7.8465 18.9064 8.09389 18.9437 8.36071C18.9554 8.4453 18.9554 8.54738 18.9554 8.75009C18.9554 8.9528 18.9554 9.05488 18.9437 9.13946C18.9064 9.40629 18.7832 9.65368 18.5926 9.84419C18.4021 10.0347 18.1547 10.158 17.8879 10.1953C17.8033 10.207 17.7012 10.207 17.4985 10.207C17.2958 10.207 17.1937 10.207 17.1092 10.1953C16.8423 10.158 16.5949 10.0347 16.4044 9.84419C16.2139 9.65368 16.0907 9.40629 16.0533 9.13946C16.0417 9.05488 16.0417 8.9528 16.0417 8.75009ZM16.0417 17.5001C16.0417 17.2974 16.0417 17.1953 16.0533 17.1107C16.0907 16.8439 16.2139 16.5965 16.4044 16.406C16.5949 16.2155 16.8423 16.0922 17.1092 16.0549C17.1952 16.0432 17.2958 16.0432 17.4985 16.0432C17.7012 16.0432 17.8048 16.0432 17.8879 16.0549C18.1547 16.0922 18.4021 16.2155 18.5926 16.406C18.7832 16.5965 18.9064 16.8439 18.9437 17.1107C18.9554 17.1953 18.9554 17.2974 18.9554 17.5001C18.9554 17.7028 18.9554 17.8049 18.9437 17.8895C18.9064 18.1563 18.7832 18.4037 18.5926 18.5942C18.4021 18.7847 18.1547 18.908 17.8879 18.9453C17.8033 18.957 17.7012 18.957 17.4985 18.957C17.2958 18.957 17.1937 18.957 17.1092 18.9453C16.8423 18.908 16.5949 18.7847 16.4044 18.5942C16.2139 18.4037 16.0907 18.1563 16.0533 17.8895C16.0417 17.8049 16.0417 17.7028 16.0417 17.5001ZM16.0417 25.8126C16.03 25.8972 16.03 25.9993 16.03 26.202C16.03 26.4047 16.03 26.5068 16.0417 26.5913C16.079 26.8582 16.2023 27.1056 16.3928 27.2961C16.5833 27.4866 16.8307 27.6098 17.0975 27.6472C17.1821 27.6588 17.2842 27.6588 17.4869 27.6588C17.6896 27.6588 17.7917 27.6588 17.8762 27.6472C18.1431 27.6098 18.3905 27.4866 18.581 27.2961C18.7715 27.1056 18.8947 26.8582 18.9321 26.5913C18.9437 26.5068 18.9437 26.4047 18.9437 26.202C18.9437 25.9993 18.9437 25.8972 18.9321 25.8126C18.8947 25.5458 18.7715 25.2984 18.581 25.1079C18.3905 24.9173 18.1431 24.7941 17.8762 24.7568C17.7917 24.7451 17.6896 24.7451 17.4869 24.7451C17.2842 24.7451 17.1821 24.7451 17.0975 24.7568C16.8307 24.7941 16.5833 24.9173 16.3928 25.1079C16.2023 25.2984 16.079 25.5458 16.0417 25.8126Z" fill="black"/>
</svg>
